<svg width="51" height="51" viewBox="0 0 51 51" fill="none" xmlns="http://www.w3.org/2000/svg">
<g clip-path="url(#clip0_1_170)">
<path d="M0.477783 38.8078L15.22 23.4281L3.90435 7.09213C3.34653 7.80932 2.9481 8.76557 2.86841 9.88119L-0.000341799 35.939C-0.0800293 37.0546 0.0793457 38.0109 0.477783 38.8078Z" fill="#6C63FF"/>
<path d="M49.9637 4.38281L28.6074 24.225L45.4215 46.9359C46.3777 46.1391 47.0152 44.9437 47.1746 43.5094L50.9996 7.96875C51.159 6.53437 50.6809 5.17969 49.9637 4.38281Z" fill="#6C63FF"/>
<path d="M20.4793 31.3968L15.22 23.428L0.477783 38.8077C0.796533 39.5249 1.35435 40.003 1.99185 40.1624L42.4731 47.8124C43.5887 48.0515 44.6247 47.653 45.4215 46.9359L28.6075 24.2249L20.4793 31.3968Z" fill="#6C63FF"/>
<path d="M47.255 3.18758L5.65815 5.97664C5.02065 6.05633 4.38315 6.45477 3.90503 7.09227L15.3003 23.4282L20.5597 31.397L28.6878 24.2251L49.9644 4.38289C49.2472 3.58602 48.291 3.10789 47.255 3.18758Z" fill="#6C63FF"/>
<path d="M28.0503 18.8062L28.5285 14.7421L14.5832 14.6624L12.2722 33.7078L25.8191 36.8953L26.3769 32.8312L16.1769 30.839L16.7347 26.4562L26.9347 27.8906L27.4128 23.8265L17.1332 22.7906L17.691 18.3281L28.0503 18.8062Z" fill="white"/>
</g>
<defs>
<clipPath id="clip0_1_170">
<rect width="51" height="51" fill="white"/>
</clipPath>
</defs>
</svg>
